<svg xmlns="http://www.w3.org/2000/svg" viewBox="0 0 16 16" width="16" height="16" fill="#ffffff">
  <path d="M5.51 2.04 L6.31 2.04 L6.72 3.78 L6.72 4.29 L6.23 4.29 L6.04 4.24 L5.10 4.29 L5.10 3.80 L5.51 2.04 Z"/>
  <path d="M2.27 3.27 L2.83 3.27 L4.45 4.29 L4.45 4.68 L4.13 4.89 L3.74 5.28 L3.55 5.59 L3.14 5.57 L2.17 3.97 L2.15 3.39 L2.27 3.27 Z"/>
  <path d="M8.99 3.27 L9.60 3.30 L9.67 3.39 L9.67 3.93 L8.68 5.57 L8.27 5.57 L7.88 5.06 L7.37 4.68 L7.37 4.29 L8.99 3.27 Z"/>
  <path d="M5.63 4.36 L6.23 4.36 L6.72 4.43 L7.20 4.60 L7.56 4.82 L7.85 5.06 L8.27 5.59 L8.44 5.96 L8.44 6.42 L7.73 6.73 L7.11 7.17 L6.60 7.67 L6.19 8.25 L5.87 8.93 L5.70 9.66 L5.20 9.66 L4.91 9.58 L4.52 9.41 L4.47 9.32 L4.06 9.00 L3.65 8.50 L3.53 8.42 L3.36 8.04 L3.26 7.67 L3.24 6.59 L3.33 6.10 L3.53 5.64 L3.77 5.28 L4.13 4.92 L4.45 4.70 L4.86 4.51 L5.63 4.36 Z"/>
  <path d="M2.68 6.22 L3.16 6.22 L3.16 6.71 L3.12 6.88 L3.16 7.84 L2.66 7.84 L1.01 7.46 L1.01 6.61 L2.68 6.22 Z"/>
  <path d="M9.26 6.54 L9.81 6.54 L10.59 6.68 L10.97 6.83 L11.58 7.17 L12.21 7.72 L12.57 8.21 L12.91 8.91 L13.05 9.44 L13.05 9.58 L13.15 9.66 L13.37 9.68 L13.90 9.90 L14.24 10.14 L14.55 10.48 L14.79 10.89 L14.96 11.42 L14.96 12.17 L14.87 12.53 L14.65 12.97 L14.41 13.28 L14.04 13.60 L13.59 13.84 L13.13 13.96 L5.75 13.96 L5.44 13.89 L5.03 13.69 L4.78 13.53 L4.45 13.16 L4.20 12.73 L4.08 12.27 L4.11 11.59 L4.23 11.20 L4.42 10.87 L4.66 10.58 L5.12 10.24 L5.56 10.07 L5.99 9.99 L6.07 9.32 L6.28 8.64 L6.60 8.08 L7.18 7.43 L7.66 7.07 L8.12 6.83 L8.51 6.68 L9.26 6.54 Z"/>
  <path d="M3.16 8.47 L3.60 8.47 L3.94 8.91 L4.45 9.32 L4.45 9.78 L2.83 10.82 L2.27 10.82 L2.15 10.67 L2.17 10.12 L3.16 8.47 Z"/>
</svg>
