<svg xmlns="http://www.w3.org/2000/svg" viewBox="0 0 16 16" width="16" height="16" fill="#ffffff">
  <path d="M6.23 1.30 L7.21 1.33 L7.69 1.45 L8.40 1.77 L9.06 2.28 L9.41 2.70 L9.80 3.32 L10.25 3.09 L10.67 2.97 L11.32 2.97 L11.92 3.14 L12.33 3.41 L12.63 3.71 L12.84 4.01 L13.08 4.60 L13.11 5.35 L13.82 5.74 L14.33 6.21 L14.78 6.96 L14.93 7.46 L14.99 8.12 L14.81 9.01 L14.51 9.61 L13.97 10.20 L13.32 10.62 L12.90 10.77 L12.42 10.86 L3.58 10.86 L3.10 10.77 L2.50 10.53 L2.03 10.20 L1.70 9.88 L1.37 9.40 L1.19 9.01 L1.07 8.60 L1.01 8.09 L1.10 7.31 L1.43 6.54 L1.64 6.24 L2.27 5.68 L3.16 5.26 L3.13 4.54 L3.25 3.89 L3.58 3.09 L3.99 2.49 L4.50 2.01 L5.01 1.69 L5.57 1.45 L6.23 1.30 Z"/>
  <path d="M4.95 11.60 L5.66 11.63 L5.84 11.78 L5.90 11.93 L5.87 14.70 L4.62 14.67 L4.62 11.93 L4.68 11.78 L4.95 11.60 Z"/>
  <path d="M7.69 11.60 L8.31 11.60 L8.46 11.66 L8.64 11.90 L8.61 14.70 L7.39 14.70 L7.36 14.64 L7.36 11.96 L7.42 11.78 L7.69 11.60 Z"/>
  <path d="M10.43 11.60 L11.14 11.63 L11.32 11.78 L11.38 11.93 L11.35 14.70 L10.13 14.70 L10.10 14.64 L10.10 11.93 L10.16 11.78 L10.43 11.60 Z"/>
</svg>
